<svg id="SvgjsSvg1060" width="288" height="288" xmlns="http://www.w3.org/2000/svg" version="1.1" xmlns:xlink="http://www.w3.org/1999/xlink" xmlns:svgjs="http://svgjs.com/svgjs"><defs id="SvgjsDefs1061"></defs><g id="SvgjsG1062"><svg xmlns="http://www.w3.org/2000/svg" id="Layer_1" x="0" y="0" version="1.1" viewBox="0 0 128 128" xml:space="preserve" width="288" height="288"><path fill="#ffffff" d="M71.1 113.3c-1 .1-1.8.1-2.5.1H40.5c-19.2 0-35.3-12.7-39.5-31.3-4.1-18 5-36.9 21.7-44.8.6-.3 1.1-.6 2-1.1-4.1-3.6-8.1-7.1-12-10.6-4-3.5-8-7-12.3-10.7.8-.1 1.2-.3 1.7-.3 8.3 0 16.5-.1 24.8 0 1.1 0 2.5.5 3.3 1.2C43.4 27.1 56.4 38.6 69.6 50c.5.4 1.1.8 1.7 1.1-.1.3-.2.5-.4.8h-2.5c-9.2 0-18.5-.1-27.7 0-8.6.1-15.2 3.9-19.5 11.6-6.5 11.8.8 27.8 14 30.3 4.4.8 9.1.6 13.6.9.7 0 1.6.1 2.1.6 6.5 5.5 12.9 11.1 19.3 16.7.3.3.5.7.9 1.3z" class="color486eb5 svgShape"></path><path fill="#f2b827" d="M127.7 113.2h-5c-7.1 0-14.3.1-21.4 0-1.2 0-2.6-.5-3.5-1.2C84.4 100.5 71 88.9 57.7 77.3c-.2-.2-.4-.5-.8-1.2 1.1-.1 1.8-.2 2.6-.2 9.2 0 18.4.1 27.7 0 8.7-.1 15.4-3.7 19.6-11.5 6-11.1.3-25.5-11.5-29.7-4.4-1.6-8.9-1.6-13.5-1.4-2.8.1-4.9-.5-7-2.5-5.4-5-11-9.6-16.5-14.4-.4-.4-.9-.6-1.6-1.1.7-.4.9-.6 1.2-.6 11.1 0 22.2 0 33.3.2 7.5.1 14.2 2.9 20.2 7.3 8.2 6 13.5 14 15.7 23.8 1.9 8.3 1.1 16.5-2.3 24.3-3.7 8.6-9.7 15.1-18 19.6-.5.3-1.1.5-1.7.8-.5.3-.9.6-1.8 1.1 8.1 7.2 16 14.1 24.4 21.4z" class="color57c09a svgShape"></path></svg></g></svg>